# xmcd
#
# Track frame offsets:
#	150
#	16234
#	33566
#	51314
#	68418
#	85506
#	100438
#	118541
#	135307
#	150591
#	166613
#	183105
#	199203
#	212985
#	227967
#	242325
#	259973
#	273168
#
# Disc length: 3847 seconds
#
# Revision: 3
# Processed by: cddbd v1.5PL3 Copyright (c) Steve Scherf et al.
# Submitted via: MusicWizard 6.0.2
#
DISCID=e70f0512
DTITLE=Various Artist - Las Grandes Sesiones De La Salsa 2 [CD1 - 4) [CD 3/4)
DYEAR=2003
DGENRE=Salsa/Merengue
TTITLE0=Iván Iván - La Negrita
TTITLE1=La Grande De Siempre - Todo Por Amor
TTITLE2=Willie Amadeo - Diga Que Sí
TTITLE3=Joe King - Quédate
TTITLE4=Jorge Leo Y Rio Atrato - Atado A Tu Amor
TTITLE5=Diómedes And Grupo Mío - La Fiesta
TTITLE6=Eko - Bailando Contigo
TTITLE7=La Línea - Huellas
TTITLE8=Osvil - Vivir Así Es Morir De Amor
TTITLE9=Doble Impacto - Desde Aquel Dia
TTITLE10=Reynaldo Rey - Un Buen Perdedor
TTITLE11=Tony Rivas - Hay Amores
TTITLE12=La Muralla - La Fuerza Del Corazón
TTITLE13=Patrick Shannon - Estás Enamorada
TTITLE14=Carlos Manuel - El Fin De Semana
TTITLE15=Danny And Junior - Triste Buscando Amor
TTITLE16=Rubby Pérez - Volveré
TTITLE17=Anntony - Clavado En Un Bar
EXTD=
EXTT0=
EXTT1=
EXTT2=
EXTT3=
EXTT4=
EXTT5=
EXTT6=
EXTT7=
EXTT8=
EXTT9=
EXTT10=
EXTT11=
EXTT12=
EXTT13=
EXTT14=
EXTT15=
EXTT16=
EXTT17=
PLAYORDER=
